<?xml version="1.0" standalone="no"?>
<!DOCTYPE svg PUBLIC "-//W3C//DTD SVG 20010904//EN"
 "http://www.w3.org/TR/2001/REC-SVG-20010904/DTD/svg10.dtd">
<svg version="1.0" xmlns="http://www.w3.org/2000/svg"
 width="300.000000pt" height="300.000000pt" viewBox="0 0 300.000000 300.000000"
 preserveAspectRatio="xMidYMid meet">
<metadata>
Created by potrace 1.11, written by Peter Selinger 2001-2013
</metadata>
<g transform="translate(0.000000,300.000000) scale(0.100000,-0.100000)"
fill="#000000" stroke="none">
<path d="M1417 2724 c-1 -1 -31 -5 -67 -8 -100 -11 -210 -38 -285 -71 -60 -26
-106 -44 -112 -44 -3 1 -9 -3 -12 -8 -3 -5 -26 -20 -51 -34 -50 -27 -51 -28
-139 -100 -57 -46 -86 -75 -155 -153 -40 -46 -118 -170 -147 -234 -17 -37 -34
-76 -39 -87 -11 -24 -39 -123 -46 -161 -3 -15 -7 -31 -9 -35 -5 -8 -18 -159
-18 -209 0 -64 15 -215 23 -230 4 -8 11 -31 14 -51 8 -49 9 -54 61 -179 30
-74 99 -189 151 -252 41 -50 134 -149 134 -142 0 2 8 -4 18 -14 86 -80 251
-175 382 -218 30 -10 57 -19 60 -19 7 -1 82 -18 100 -22 8 -2 41 -5 72 -7 31
-2 61 -6 65 -8 18 -9 256 7 274 18 4 2 24 6 45 10 52 8 198 60 259 92 116 61
221 138 308 227 76 78 217 284 217 319 0 6 4 16 8 22 9 9 42 93 46 117 2 6 9
32 16 57 7 25 14 59 16 75 2 17 6 53 10 80 13 85 8 241 -11 335 -3 14 -7 36
-10 50 -8 41 -45 152 -66 200 -21 45 -108 201 -119 210 -3 3 -22 26 -43 52
-178 222 -465 380 -747 413 -44 6 -199 12 -203 9z"/>
</g>
</svg>
